:SAMPLES-PER-SECOND 30
:FULLY-SPECIFIED
:DEGREES
606
root  2.67175 30.7414 -76.1906 84.3105 6.20606 89.9589
Spine  1.84648 15.4555 -15.5121
Spine1  0.875186 -13.2361 13.5306
Neck  3.97569e-016 0 -2.38542e-015
Head  44.4454 -20.9921 34.2082
R_Clavicle  0.335825 -15.3804 0.77815
R_UpperArm  38.1389 3.26157 12.6815
R_Forearm  -8.34907 -46.8373 30.4272
R_Hand  -0.948619 8.48712 -18.5965
L_Clavicle  -0.693398 21.4654 -1.56116
L_UpperArm  -27.4176 6.62223 25.5846
L_Forearm  10.9298 42.2126 52.7596
L_Hand  0.00975851 -2.62543 0.0489799
L_Thigh  -19.6898 -0.926158 3.67599
L_Calf  -4.28015 -0.996539 7.75124
L_Foot  7.9078 15.2643 12.198
L_Toe0  0.505156 0.0176754 -6.13625
R_Thigh  11.5495 1.09712 -22.0082
R_Calf  -0.145833 5.7248 18.6422
R_Foot  0.186064 5.51859 21.1066
R_Toe0  -1.78853 -0.272788 -17.3235
607
root  2.57256 30.8438 -76.5899 84.7458 7.21313 89.9111
Spine  1.61099 12.5855 -14.613
Spine1  1.02337 -9.72418 13.7403
Neck  3.97569e-016 0 -2.38542e-015
Head  44.301 -21.5833 36.2445
R_Clavicle  0.35162 -15.1207 1.06278
R_UpperArm  36.7969 5.75056 10.1892
R_Forearm  -9.94516 -46.8901 29.7985
R_Hand  -0.642966 7.85674 -16.0911
L_Clavicle  -0.657059 20.6551 -1.55735
L_UpperArm  -28.461 10.8067 26.7145
L_Forearm  5.11843 40.0042 50.609
L_Hand  0.00849223 -1.61964 0.114971
L_Thigh  -18.423 -1.28555 3.10868
L_Calf  -5.07033 -1.1656 8.99496
L_Foot  7.35227 15.42 10.4812
L_Toe0  0.505156 0.0163569 -6.13626
R_Thigh  12.3116 1.1697 -22.2694
R_Calf  -0.37834 5.74958 18.744
R_Foot  -0.101105 4.84683 20.4357
R_Toe0  -1.78853 -0.272788 -17.3235
608
root  2.46292 30.9216 -76.9181 85.7451 7.40905 89.7259
Spine  1.1529 10.1533 -14.8902
Spine1  1.08387 -6.46567 14.0416
Neck  3.97569e-016 0 -2.38542e-015
Head  43.4767 -21.4985 37.1448
R_Clavicle  0.382746 -15.636 1.49434
R_UpperArm  36.2142 7.35459 8.95715
R_Forearm  -8.1971 -45.6435 28.2671
R_Hand  -0.487728 7.84552 -14.8833
L_Clavicle  -0.669842 20.5774 -1.94352
L_UpperArm  -28.207 13.2609 28.2231
L_Forearm  2.14414 38.9198 48.7132
L_Hand  0.0289556 -0.226513 0.598702
L_Thigh  -17.1145 -1.5021 3.34843
L_Calf  -5.22965 -1.29176 9.90762
L_Foot  6.98738 15.7499 9.14472
L_Toe0  0.505156 0.0150591 -6.13627
R_Thigh  11.9986 2.11817 -22.0625
R_Calf  1.06813 5.84905 19.1
R_Foot  -0.020487 4.88595 19.6645
R_Toe0  -1.78853 -0.272788 -17.3235
609
root  2.37906 30.9778 -77.1767 86.862 7.22357 89.4437
Spine  0.720801 9.10064 -15.7142
Spine1  0.982937 -4.60113 14.5394
Neck  3.97569e-016 0 -2.38542e-015
Head  42.443 -21.2673 37.1887
R_Clavicle  0.405198 -15.8493 1.8556
R_UpperArm  36.6057 7.40882 8.5726
R_Forearm  -3.8042 -43.4562 26.4034
R_Hand  -0.658616 8.33827 -16.3804
L_Clavicle  -0.701761 21.0019 -2.18964
L_UpperArm  -26.9721 13.6493 29.2849
L_Forearm  3.38988 39.0057 47.3086
L_Hand  0.0472102 0.739519 0.889987
L_Thigh  -16.2916 -1.45425 3.90585
L_Calf  -4.8387 -1.37783 10.5348
L_Foot  6.80772 16.2297 8.21258
L_Toe0  0.505156 0.0137914 -6.13628
R_Thigh  11.8263 3.15159 -21.7074
R_Calf  2.56907 5.98216 19.5448
R_Foot  0.110964 5.047 18.9879
R_Toe0  -1.78853 -0.272788 -17.3235
610
root  2.3499 31.0209 -77.3578 87.9492 7.29444 89.4683
Spine  0.462985 8.89967 -16.1492
Spine1  0.819488 -4.08338 14.86
Neck  3.97569e-016 0 -2.38542e-015
Head  41.3346 -21.0497 37.3186
R_Clavicle  0.412759 -15.9047 1.98239
R_UpperArm  36.5343 6.48249 9.06501
R_Forearm  2.25341 -40.7963 24.4428
R_Hand  -1.07619 8.58185 -19.5424
L_Clavicle  -0.717717 21.4191 -2.08845
L_UpperArm  -25.8048 12.9718 29.4966
L_Forearm  7.87662 39.591 46.4598
L_Hand  0.0598596 0.648373 1.12628
L_Thigh  -16.1116 -1.58675 4.01365
L_Calf  -4.20448 -1.46345 11.176
L_Foot  6.75157 16.8656 7.51092
L_Toe0  0.505156 0.0125628 -6.13629
R_Thigh  12.7356 3.26263 -21.6229
R_Calf  2.76401 6.05463 19.7845
R_Foot  0.0622185 4.89082 18.6435
R_Toe0  -1.78853 -0.272788 -17.3235
611
root  2.34343 31.0415 -77.477 88.7864 7.57918 89.6685
Spine  0.47963 9.10273 -16.1315
Spine1  0.794614 -4.34463 14.8947
Neck  3.97569e-016 0 -2.38542e-015
Head  40.282 -20.7228 37.6035
R_Clavicle  0.405363 -16.2971 1.83677
R_UpperArm  34.7354 5.69614 10.3215
R_Forearm  8.45012 -38.1381 22.8645
R_Hand  -1.35542 8.35414 -21.639
L_Clavicle  -0.705534 21.4022 -1.86136
L_UpperArm  -25.4535 12.3799 28.9295
L_Forearm  12.4567 40.1013 46.4177
L_Hand  0.0827539 -0.205492 1.72691
L_Thigh  -16.5683 -1.70645 3.78609
L_Calf  -3.11717 -1.5293 11.6657
L_Foot  6.84859 17.6731 7.10679
L_Toe0  0.505156 0.0113827 -6.1363
R_Thigh  13.6518 2.99829 -21.7147
R_Calf  2.52832 6.04724 19.7662
R_Foot  -0.0213176 4.70034 18.5457
R_Toe0  -1.78853 -0.272788 -17.3235
612
root  2.32636 31.0332 -77.5448 89.3668 7.89328 89.6689
Spine  0.666312 9.60921 -16.0075
Spine1  0.919202 -4.77622 14.8446
Neck  3.97569e-016 0 -2.38542e-015
Head  39.4813 -20.5024 37.6156
R_Clavicle  0.395579 -16.8219 1.60933
R_UpperArm  32.8763 5.55556 11.6152
R_Forearm  11.7312 -36.6301 22.1586
R_Hand  -1.34668 8.07178 -21.585
L_Clavicle  -0.68048 21.065 -1.66817
L_UpperArm  -25.7703 12.1431 27.9978
L_Forearm  14.1366 40.3555 46.9781
L_Hand  0.0949417 -1.02982 2.29615
L_Thigh  -17.1394 -1.48516 3.57626
L_Calf  -1.84346 -1.53598 11.6965
L_Foot  7.05009 18.3647 7.09133
L_Toe0  0.505156 0.0102602 -6.13631
R_Thigh  13.8363 3.15136 -21.9119
R_Calf  2.84084 6.02073 19.6847
R_Foot  0.0122959 4.76567 18.5162
R_Toe0  -1.78853 -0.272788 -17.3235
